<svg width="20" height="20" viewBox="0 0 20 20" fill="none" xmlns="http://www.w3.org/2000/svg">
<path d="M15.4681 3.75033H12.6035V3.22949C12.6035 2.36794 11.9026 1.66699 11.041 1.66699H8.95768C8.09613 1.66699 7.39518 2.36794 7.39518 3.22949V3.75033H4.5306C3.81263 3.75033 3.22852 4.33444 3.22852 5.05241V6.87533C3.22852 7.16296 3.46172 7.39616 3.74935 7.39616H4.03398L4.48395 16.8455C4.5237 17.68 5.20924 18.3337 6.04466 18.3337H13.954C14.7895 18.3337 15.475 17.68 15.5147 16.8455L15.9647 7.39616H16.2493C16.537 7.39616 16.7702 7.16296 16.7702 6.87533V5.05241C16.7702 4.33444 16.1861 3.75033 15.4681 3.75033ZM8.43685 3.22949C8.43685 2.94232 8.67051 2.70866 8.95768 2.70866H11.041C11.3282 2.70866 11.5618 2.94232 11.5618 3.22949V3.75033H8.43685V3.22949ZM4.27018 5.05241C4.27018 4.90882 4.38701 4.79199 4.5306 4.79199H15.4681C15.6117 4.79199 15.7285 4.90882 15.7285 5.05241V6.35449C15.568 6.35449 4.93532 6.35449 4.27018 6.35449V5.05241ZM14.4743 16.7959C14.461 17.0741 14.2325 17.292 13.954 17.292H6.04466C5.76618 17.292 5.53766 17.0741 5.52445 16.7959L5.07682 7.39616H14.9219L14.4743 16.7959Z" fill="#CE4343"/>
<path d="M9.99935 16.25C10.287 16.25 10.5202 16.0168 10.5202 15.7292V8.95833C10.5202 8.6707 10.287 8.4375 9.99935 8.4375C9.71172 8.4375 9.47852 8.6707 9.47852 8.95833V15.7292C9.47852 16.0168 9.71169 16.25 9.99935 16.25Z" fill="#CE4343"/>
<path d="M12.6029 16.25C12.8905 16.25 13.1237 16.0168 13.1237 15.7292V8.95833C13.1237 8.6707 12.8905 8.4375 12.6029 8.4375C12.3152 8.4375 12.082 8.6707 12.082 8.95833V15.7292C12.082 16.0168 12.3152 16.25 12.6029 16.25Z" fill="#CE4343"/>
<path d="M7.39583 16.25C7.68346 16.25 7.91667 16.0168 7.91667 15.7292V8.95833C7.91667 8.6707 7.68346 8.4375 7.39583 8.4375C7.1082 8.4375 6.875 8.6707 6.875 8.95833V15.7292C6.875 16.0168 7.10817 16.25 7.39583 16.25Z" fill="#CE4343"/>
</svg>
