<svg width="13" height="14" viewBox="0 0 13 14" fill="none" xmlns="http://www.w3.org/2000/svg">
<path d="M2.25581 9.60623C2.15181 9.60623 2.04801 9.56662 1.96859 9.4872C1.80995 9.32856 1.80995 9.0714 1.96859 8.91276L8.31706 2.56429C8.4755 2.40565 8.73285 2.40565 8.8915 2.56429C9.05014 2.72293 9.05014 2.98009 8.8915 3.13873L2.54303 9.4872C2.46381 9.56642 2.35981 9.60623 2.25581 9.60623Z" fill="black"/>
<path d="M1.62931 12.5312C1.60108 12.5312 1.57244 12.5281 1.5438 12.522C1.32442 12.4749 1.18467 12.259 1.2318 12.0396L1.85945 9.11399C1.90658 8.89461 2.12352 8.75527 2.34187 8.80199C2.56125 8.84911 2.701 9.06504 2.65387 9.28441L2.02622 12.21C1.98539 12.4008 1.8168 12.5312 1.62931 12.5312Z" fill="black"/>
<path d="M4.55268 11.9029C4.44868 11.9029 4.34489 11.8633 4.26546 11.7839C4.10682 11.6252 4.10682 11.3681 4.26546 11.2094L10.6139 4.86117C10.7724 4.70253 11.0297 4.70253 11.1884 4.86117C11.347 5.01981 11.347 5.27696 11.1884 5.43561L4.84011 11.7839C4.76068 11.8633 4.65668 11.9029 4.55268 11.9029Z" fill="black"/>
<path d="M1.62669 12.532C1.43921 12.532 1.27081 12.4016 1.22978 12.2108C1.18286 11.9915 1.32241 11.7755 1.54178 11.7284L4.46739 11.1007C4.68697 11.0542 4.90289 11.1936 4.94981 11.4127C4.99674 11.6321 4.85719 11.848 4.63781 11.8952L1.71221 12.5228C1.68356 12.5291 1.65492 12.532 1.62669 12.532Z" fill="black"/>
<path d="M9.75298 6.70415C9.64898 6.70415 9.54498 6.66454 9.46576 6.58512L7.16781 4.28717C7.00917 4.12853 7.00917 3.87137 7.16781 3.71273C7.32625 3.55409 7.58381 3.55409 7.74225 3.71273L10.0402 6.01068C10.1988 6.16932 10.1988 6.42648 10.0402 6.58512C9.96098 6.66454 9.85698 6.70415 9.75298 6.70415Z" fill="black"/>
<path d="M10.9018 5.55489C10.7978 5.55489 10.6938 5.51528 10.6144 5.43586C10.4558 5.27722 10.4558 5.02006 10.6144 4.86122C10.8405 4.63514 10.965 4.32903 10.965 3.99956C10.965 3.67009 10.8405 3.36398 10.6144 3.13791C10.3881 2.91162 10.082 2.78711 9.75254 2.78711C9.42307 2.78711 9.11696 2.91162 8.89089 3.13791C8.73245 3.29655 8.47529 3.29675 8.31625 3.13791C8.15761 2.97927 8.15761 2.72211 8.31625 2.56327C8.69568 2.18362 9.20573 1.97461 9.75254 1.97461C10.2992 1.97461 10.8094 2.18362 11.1888 2.56327C11.5685 2.9427 11.7775 3.45275 11.7775 3.99956C11.7775 4.54637 11.5685 5.05642 11.1888 5.43586C11.1098 5.51508 11.0058 5.55489 10.9018 5.55489Z" fill="black"/>
</svg>
