<?xml version="1.0" standalone="no"?>
<!DOCTYPE svg PUBLIC "-//W3C//DTD SVG 20010904//EN"
 "http://www.w3.org/TR/2001/REC-SVG-20010904/DTD/svg10.dtd">
<svg version="1.0" xmlns="http://www.w3.org/2000/svg"
 width="934.000000pt" height="980.000000pt" viewBox="0 0 934.000000 980.000000"
 preserveAspectRatio="xMidYMid meet">

<g transform="translate(0.000000,980.000000) scale(0.100000,-0.100000)"
fill="#000000" stroke="none">
<path d="M4504 9790 c-127 -23 -273 -102 -387 -210 -88 -83 -153 -173 -215
-296 l-41 -81 -2 -2284 c-2 -2334 1 -2502 36 -2673 8 -39 27 -94 42 -124 41
-81 150 -210 228 -269 265 -201 577 -233 870 -88 175 87 289 207 390 412 l55
113 0 2444 0 2445 -45 96 c-60 129 -119 216 -202 296 -109 105 -225 170 -365
204 -76 19 -294 28 -364 15z"/>
<path d="M1775 8196 c-201 -46 -315 -124 -539 -365 -607 -653 -1019 -1496
-1171 -2395 -141 -833 -45 -1702 279 -2521 63 -158 237 -512 321 -650 223
-368 418 -611 756 -940 261 -254 399 -368 643 -529 813 -540 1769 -819 2711
-793 1426 41 2670 665 3573 1792 383 479 694 1115 850 1742 269 1074 148 2197
-342 3190 -241 489 -464 808 -816 1166 -166 171 -240 224 -366 266 -127 42
-212 55 -324 48 -117 -8 -190 -27 -300 -78 -171 -80 -305 -211 -385 -374 -59
-119 -75 -193 -75 -340 0 -285 44 -391 268 -647 347 -395 539 -714 677 -1123
108 -321 144 -534 152 -892 8 -360 -11 -546 -87 -840 -106 -410 -298 -795
-560 -1123 -106 -132 -365 -391 -492 -493 -384 -306 -805 -500 -1303 -602
-208 -42 -657 -59 -911 -34 -536 53 -1115 293 -1564 650 -136 108 -355 326
-460 459 -355 446 -588 1006 -645 1549 -19 175 -19 527 0 702 55 519 269 1052
594 1481 38 51 127 158 196 238 243 278 282 364 292 640 4 127 2 167 -12 220
-42 161 -145 320 -273 422 -81 64 -224 138 -317 163 -83 23 -292 29 -370 11z"/>
</g>
</svg>
